<svg viewBox="0 0 67 28" fill="none" xmlns="http://www.w3.org/2000/svg"><path d="M60.61 2.87a7.53 7.53 0 0 1 2.22-2.3c.49-.34.78-.34 1.08.3.4.95.74 1.95.44 3a1.16 1.16 0 0 0 .2 1.04c.3.4.54.8.79 1.15a3.15 3.15 0 0 1 .44 3.1 2.78 2.78 0 0 0-.1 1.54c.1.5.1 1 0 1.5a1.88 1.88 0 0 1-1.33 1.59c-.63.12-1.19.48-1.57 1a.52.52 0 0 1-.45.25c-.59.1-2.06-1.25-2.06-1.85v-.3c.05-1.8-.05-1.94-1.68-2.7a2.16 2.16 0 0 1-.88-.59c-.3-.4-.7-.35-1.14-.2-.44.15-.68.45-.64.95.15 1.2.2 2.42.15 3.64 0 .14.04.27.1.4 1.53 2.24 2.12 4.88 2.86 7.43.59 1.94 1.67 2.99 3.64 3.14.31.02.63.07.93.15a2.04 2.04 0 0 1 1.68 1.6c.34 1.04.15 1.29-.89 1.29h-3.2c-.41.02-.82-.12-1.13-.4a5.75 5.75 0 0 0-1.67-1 3.58 3.58 0 0 1-1.68-1.3 14.2 14.2 0 0 0-1.97-2.24c-1.38-1.44-2.85-2.84-4.13-4.34a5.71 5.71 0 0 1-1.58-3.78c0-.45-.1-.65-.59-.45a.94.94 0 0 1-.5.15c-1.37 0-2.06.84-2.55 2.09-.44 1.05-1.03 2.04-1.58 3.1-.3.65-.47 1.36-.49 2.09 0 1.2.3 1.6 1.38 1.99.69.25 1.33.5 1.67 1.2.4.8.3 1-.54 1.04h-3.35a.92.92 0 0 1-.93-.55l-.89-1.5a3.04 3.04 0 0 1-.34-2.68c.21-.87.23-1.77.05-2.65a4.25 4.25 0 0 1 .83-3.49c.3-.34.3-.5-.2-.6a24.44 24.44 0 0 1-5.85-2.09c-1.58-.6-1.87-.5-2.31 1.15-.4 1.4-.8 2.8-1.09 4.24-.34 1.6.05 3.09.54 4.58.2.6.8.55 1.23.7.99.3 1.83.7 2.22 1.75.34.8.3.9-.54.9-.84 0-1.68-.06-2.56 0a3.24 3.24 0 0 1-2.07-.7c-2.36-1.6-3.05-4.04-3.25-6.68-.1-1.65-.98-2.95-2.02-4.2-.2-.24-.39-.34-.69-.14a21.68 21.68 0 0 1-3.3 1.5 13.16 13.16 0 0 0-6 4.38 5.33 5.33 0 0 0-1.08 2.54c-.15.9.1 1.3.98 1.55.89.25 1.33.75 1.43 1.7.05.4-.1.6-.5.6h-3.98a.8.8 0 0 1-.64-.4 4.3 4.3 0 0 1-.94-2.75c-.02-1.72.13-3.44.45-5.13a3.16 3.16 0 0 1 1.67-2.4c2.9-1.4 4.43-4.04 5.81-6.78.3-.55.05-.65-.44-.6-1.38.2-2.69.75-3.8 1.6a34.9 34.9 0 0 0-4.08 3.54 8.17 8.17 0 0 1-5.07 2.44c-3.6.2-5.27-1.84-5.12-5.13.03-1.12.45-2.2 1.18-3.04a2.1 2.1 0 0 1 2.22-.75c.73.2.93.6.64 1.34-.15.3-.35.55-.5.85-.2.3-.37.64-.49 1-.54 1.5.2 2.54 1.72 2.7 1.63.14 2.96-.56 4.19-1.55 1.48-1.2 2.8-2.6 3.94-4.14a10.27 10.27 0 0 1 7.09-4.04c1.13-.15 2.11-.65 3.2-.95a20.2 20.2 0 0 1 6.25-.9 6.2 6.2 0 0 0 2.85-.54c2.42-1 4.93-1 7.44-.5 1.97.4 3.94.9 5.86 1.4 1.14.2 2.31.18 3.44-.1 2.16-.56 4.37-.9 6.6-1a8.84 8.84 0 0 1 4.23.84c.99.45.99.45.74 1.4Z" fill="#000"/></svg>
